<?xml version="1.0" standalone="no"?><!DOCTYPE svg PUBLIC "-//W3C//DTD SVG 1.1//EN" "http://www.w3.org/Graphics/SVG/1.1/DTD/svg11.dtd"><svg t="1537345150782" class="icon" style="" viewBox="0 0 1024 1024" version="1.1" xmlns="http://www.w3.org/2000/svg" p-id="1078" xmlns:xlink="http://www.w3.org/1999/xlink" width="200" height="200"><defs><style type="text/css"></style></defs><path d="M881.987368 604.698947a154.947368 154.947368 0 0 0-179.2-154.408421H700.631579a215.578947 215.578947 0 0 0-424.690526-32.606315 182.972632 182.972632 0 0 0 40.421052 359.208421h409.330527a161.684211 161.684211 0 0 0 156.294736-164.109474v-6.467369-1.616842z m-156.294736 118.029474H316.631579a128.808421 128.808421 0 0 1-14.012632-255.461053l20.749474-2.425263 2.425263-21.288421a161.684211 161.684211 0 0 1 320.943158 18.593684v8.623158a156.025263 156.025263 0 0 0-47.696842 43.385263 26.947368 26.947368 0 1 0 43.924211 31.528422 102.4 102.4 0 0 1 35.84-30.989474h2.425263c2.964211-1.347368 5.928421-2.155789 8.892631-3.233684a105.633684 105.633684 0 0 1 13.743158-4.581053 101.591579 101.591579 0 0 1 22.366316-2.694737 107.789474 107.789474 0 0 1 102.4 110.214737 109.136842 109.136842 0 0 1-102.938947 108.597895z" fill="#2c2c2c" p-id="1079"></path></svg>