<?xml version="1.0" standalone="no"?><!DOCTYPE svg PUBLIC "-//W3C//DTD SVG 1.1//EN" "http://www.w3.org/Graphics/SVG/1.1/DTD/svg11.dtd"><svg t="1537345164649" class="icon" style="" viewBox="0 0 1024 1024" version="1.1" xmlns="http://www.w3.org/2000/svg" p-id="1197" xmlns:xlink="http://www.w3.org/1999/xlink" width="200" height="200"><defs><style type="text/css"></style></defs><path d="M725.692632 331.183158a154.947368 154.947368 0 0 0-22.905264 1.886316H700.631579a215.578947 215.578947 0 0 0-424.690526-33.145263A175.696842 175.696842 0 0 0 316.631579 646.736842H350.315789a26.947368 26.947368 0 0 0 0-53.894737h-33.68421a122.341053 122.341053 0 0 1-120.724211-122.071579 124.766316 124.766316 0 0 1 107.789474-123.957894h21.288421l2.425263-20.48a161.684211 161.684211 0 0 1 320.943158 18.863157v8.623158a156.025263 156.025263 0 0 0-47.696842 43.385264 26.947368 26.947368 0 0 0 43.924211 31.528421 102.4 102.4 0 0 1 35.84-30.989474h2.425263c2.964211-1.347368 5.928421-2.155789 8.892631-3.233684a105.633684 105.633684 0 0 1 13.743158-4.581053 101.322105 101.322105 0 0 1 124.766316 101.322105A103.477895 103.477895 0 0 1 725.692632 592.842105H673.684211a26.947368 26.947368 0 0 0 0 53.894737h52.008421a156.833684 156.833684 0 0 0 156.294736-157.911579v-3.233684c0-3.233684 0 0 0 0a154.947368 154.947368 0 0 0-156.294736-154.408421z" fill="#2c2c2c" p-id="1198"></path><path d="M532.210526 607.663158a26.947368 26.947368 0 0 0-35.301052 14.282105L429.541053 781.473684a26.947368 26.947368 0 1 0 49.583158 21.018948l67.368421-158.450527a26.947368 26.947368 0 0 0-14.282106-36.378947z" fill="#2c2c2c" p-id="1199"></path><path d="M421.726316 867.435789m-26.947369 0a26.947368 26.947368 0 1 0 53.894737 0 26.947368 26.947368 0 1 0-53.894737 0Z" fill="#2c2c2c" p-id="1200"></path></svg>