<?xml version="1.0" standalone="no"?><!DOCTYPE svg PUBLIC "-//W3C//DTD SVG 1.1//EN" "http://www.w3.org/Graphics/SVG/1.1/DTD/svg11.dtd"><svg t="1537345168645" class="icon" style="" viewBox="0 0 1024 1024" version="1.1" xmlns="http://www.w3.org/2000/svg" p-id="1318" xmlns:xlink="http://www.w3.org/1999/xlink" width="200" height="200"><defs><style type="text/css"></style></defs><path d="M725.692632 299.115789c-8.353684 0-16.707368 0-25.061053 1.347369V296.421053a215.578947 215.578947 0 0 0-424.690526-26.947369 179.2 179.2 0 0 0-134.736842 171.654737A176.505263 176.505263 0 0 0 316.631579 619.789474H350.315789a26.947368 26.947368 0 0 0 0-53.894737h-33.68421a122.341053 122.341053 0 0 1-120.724211-122.341053 124.766316 124.766316 0 0 1 107.789474-124.227368h21.288421l2.425263-20.48a161.684211 161.684211 0 0 1 319.326316 18.593684v8.623158a156.025263 156.025263 0 0 0-47.696842 43.385263 26.947368 26.947368 0 0 0 43.924211 31.528421 102.4 102.4 0 0 1 35.301052-30.72l4.581053-2.155789 4.042105-1.347369a103.747368 103.747368 0 0 1 18.054737-6.197895h1.616842a99.435789 99.435789 0 0 1 19.941053-2.155789 100.783158 100.783158 0 0 1 102.4 103.747368A103.477895 103.477895 0 0 1 725.692632 565.894737H673.684211a26.947368 26.947368 0 0 0 0 53.894737h52.008421a156.833684 156.833684 0 0 0 156.294736-157.911579v-3.503158-2.425263a157.103158 157.103158 0 0 0-156.294736-156.833685z" fill="#2c2c2c" p-id="1319"></path><path d="M580.985263 580.446316a26.947368 26.947368 0 0 0-35.301052 14.282105L454.871579 808.421053a26.947368 26.947368 0 1 0 49.583158 21.018947l90.812631-213.423158a26.947368 26.947368 0 0 0-14.282105-35.570526z" fill="#2c2c2c" p-id="1320"></path><path d="M447.865263 892.766316m-26.947368 0a26.947368 26.947368 0 1 0 53.894737 0 26.947368 26.947368 0 1 0-53.894737 0Z" fill="#2c2c2c" p-id="1321"></path><path d="M428.463158 747.52l58.475789-131.503158a26.947368 26.947368 0 0 0-49.313684-21.827368l-58.475789 131.503158a26.947368 26.947368 0 1 0 49.313684 21.827368z" fill="#2c2c2c" p-id="1322"></path><path d="M371.065263 813.271579m-26.947368 0a26.947368 26.947368 0 1 0 53.894737 0 26.947368 26.947368 0 1 0-53.894737 0Z" fill="#2c2c2c" p-id="1323"></path></svg>