<?xml version="1.0" standalone="no"?><!DOCTYPE svg PUBLIC "-//W3C//DTD SVG 1.1//EN" "http://www.w3.org/Graphics/SVG/1.1/DTD/svg11.dtd"><svg t="1537345175122" class="icon" style="" viewBox="0 0 1024 1024" version="1.1" xmlns="http://www.w3.org/2000/svg" p-id="1565" xmlns:xlink="http://www.w3.org/1999/xlink" width="200" height="200"><defs><style type="text/css"></style></defs><path d="M881.987368 477.776842a156.294737 156.294737 0 0 0-156.294736-156.294737A154.677895 154.677895 0 0 0 700.631579 323.368421a215.578947 215.578947 0 0 0-424.96-33.145263 185.667368 185.667368 0 0 0-134.736842 177.04421 181.355789 181.355789 0 0 0 173.002105 182.703158l-33.414737 78.686316a26.947368 26.947368 0 1 0 49.583158 21.018947l49.313684-116.143157a26.947368 26.947368 0 0 0-14.282105-35.301053 26.947368 26.947368 0 0 0-13.473684-1.616842h-35.031579a129.347368 129.347368 0 0 1-14.012632-256.269474l20.749474-2.425263 2.425263-21.288421a161.684211 161.684211 0 0 1 320.943158 18.32421v8.353685a156.025263 156.025263 0 0 0-47.696842 43.385263 26.947368 26.947368 0 1 0 43.924211 31.528421 102.4 102.4 0 0 1 35.301052-30.450526l4.581053-2.15579 3.503158-1.347368a103.477895 103.477895 0 0 1 17.785263-7.006316h1.616842a99.435789 99.435789 0 0 1 19.941053-2.15579 107.789474 107.789474 0 0 1 102.4 110.484211 109.406316 109.406316 0 0 1-102.4 110.753684H697.936842a26.947368 26.947368 0 0 0-26.947368 15.898948l-67.098948 157.372631a26.947368 26.947368 0 1 0 49.583158 21.018947l60.092632-140.934736h12.934737A161.684211 161.684211 0 0 0 881.987368 485.052632v-6.736843-0.538947z" fill="#2c2c2c" p-id="1566"></path><path d="M592.842105 597.962105a26.947368 26.947368 0 0 0-35.301052 14.282106l-107.789474 254.113684a26.947368 26.947368 0 1 0 49.583158 21.018947l107.789474-254.113684a26.947368 26.947368 0 0 0-14.282106-35.301053zM485.052632 596.614737a26.947368 26.947368 0 0 0-35.570527 13.743158l-84.614737 189.978947a26.947368 26.947368 0 1 0 49.313685 21.827369l84.614736-190.248422a26.947368 26.947368 0 0 0-13.743157-35.301052z" fill="#2c2c2c" p-id="1567"></path></svg>