<?xml version="1.0" standalone="no"?><!DOCTYPE svg PUBLIC "-//W3C//DTD SVG 1.1//EN" "http://www.w3.org/Graphics/SVG/1.1/DTD/svg11.dtd"><svg t="1537345172014" class="icon" style="" viewBox="0 0 1024 1024" version="1.1" xmlns="http://www.w3.org/2000/svg" p-id="1441" xmlns:xlink="http://www.w3.org/1999/xlink" width="200" height="200"><defs><style type="text/css"></style></defs><path d="M881.987368 461.069474a156.294737 156.294737 0 0 0-156.294736-156.294737 154.677895 154.677895 0 0 0-25.061053 2.155789 215.578947 215.578947 0 0 0-424.690526-33.145263 185.667368 185.667368 0 0 0-134.736842 177.044211 181.086316 181.086316 0 0 0 174.618947 182.703158H350.315789a26.947368 26.947368 0 0 0 0-53.894737h-33.68421a129.347368 129.347368 0 0 1-14.012632-256.269474l20.749474-2.155789 2.425263-21.288421a161.684211 161.684211 0 0 1 320.943158 18.32421v8.353684a156.025263 156.025263 0 0 0-47.696842 43.385263 26.947368 26.947368 0 0 0 43.924211 31.528421 102.4 102.4 0 0 1 35.301052-30.72l4.581053-2.155789 4.042105-1.347368a103.747368 103.747368 0 0 1 18.054737-6.197895h1.616842a99.435789 99.435789 0 0 1 19.941053-2.15579 107.789474 107.789474 0 0 1 102.4 110.484211 109.406316 109.406316 0 0 1-102.4 110.753684h-55.781053a26.947368 26.947368 0 0 0-26.947368 15.898947L575.865263 754.526316a26.947368 26.947368 0 1 0 49.583158 21.018947l60.092632-140.934737h40.421052a161.684211 161.684211 0 0 0 156.294737-164.648421v-6.736842c0-2.155789-0.269474-1.616842-0.269474-2.155789z" fill="#2c2c2c" p-id="1442"></path><path d="M569.128421 581.254737a26.947368 26.947368 0 0 0-35.301053 14.282105L443.014737 808.421053a26.947368 26.947368 0 1 0 49.583158 21.018947l90.812631-213.423158a26.947368 26.947368 0 0 0-14.282105-34.762105z" fill="#2c2c2c" p-id="1443"></path><path d="M436.008421 893.574737m-26.947368 0a26.947368 26.947368 0 1 0 53.894736 0 26.947368 26.947368 0 1 0-53.894736 0Z" fill="#2c2c2c" p-id="1444"></path><path d="M566.703158 841.027368m-26.947369 0a26.947368 26.947368 0 1 0 53.894737 0 26.947368 26.947368 0 1 0-53.894737 0Z" fill="#2c2c2c" p-id="1445"></path><path d="M416.606316 748.328421l58.475789-131.503158a26.947368 26.947368 0 0 0-49.313684-21.827368L367.292632 727.578947a26.947368 26.947368 0 1 0 49.313684 20.749474z" fill="#2c2c2c" p-id="1446"></path><path d="M359.208421 814.08m-26.947368 0a26.947368 26.947368 0 1 0 53.894736 0 26.947368 26.947368 0 1 0-53.894736 0Z" fill="#2c2c2c" p-id="1447"></path></svg>